# xmcd
#
# Track frame offsets: 
#        150
#        16723
#        29591
#        44647
#        61259
#        75931
#
# Disc length: 1177 seconds
#
# Revision: 1
# Processed by: cddbd v1.4PL0 Copyright (c) Steve Scherf et al.
# Submitted via: ExactAudioCopy v0.90b3
#
DISCID=3e049706
DTITLE=Big Sandy and His Fly-Rite Boys - Radio Favorites
DYEAR=1999
DGENRE=Swing
TTITLE0=It's A Mystery To Me
TTITLE1=First And Last Blues
TTITLE2=I Can't Believe I'm Saying This To You
TTITLE3=Buddy, I Ain't Buyin'
TTITLE4=What A Dream It's Been
TTITLE5=Playgirl
EXTD=YEAR: 1999 ID3G:   2
EXTT0=
EXTT1=
EXTT2=
EXTT3=
EXTT4=
EXTT5=
PLAYORDER=
